<svg id="Layer_1" viewBox="0 0 256 256" xmlns="http://www.w3.org/2000/svg"><g><g><g><g><path d="m149.487 194.487c-5.665-5.666-7.07-14.321-3.487-21.487h-12.751c-1.045 7.166-.635 15.821 1.017 21.487l.733 2.513h17.001z" fill="#4b67b0"/></g></g><g><g><path d="m122.751 173h-12.751c3.583 7.166 2.179 15.821-3.487 21.487l-2.513 2.513h17.002l.733-2.513c1.652-5.666 2.061-14.321 1.016-21.487z" fill="#89aadb"/></g></g><g><g><path d="m133.249 173h-10.497c1.045 7.166.635 15.821-1.017 21.487l-.733 2.513h13.996l-.733-2.513c-1.652-5.666-2.061-14.321-1.016-21.487z" fill="#6287c5"/></g></g></g><g><g><g><path d="m92 166.876v-113.752c0-3.382 2.742-6.124 6.124-6.124h-56.124c-5.523 0-10 4.477-10 10v106c0 5.523 4.477 10 10 10h56.124c-3.382 0-6.124-2.742-6.124-6.124z" fill="#a4d4a0"/></g></g><g><g><path d="m214 47h-56.124c3.382 0 6.124 2.742 6.124 6.124v113.752c0 3.382-2.742 6.124-6.124 6.124h56.124c5.523 0 10-4.477 10-10v-106c0-5.523-4.477-10-10-10z" fill="#419b46"/></g></g><g><g><path d="m164 166.876v-113.752c0-3.382-2.742-6.124-6.124-6.124h-59.752c-3.382 0-6.124 2.742-6.124 6.124v113.752c0 3.382 2.742 6.124 6.124 6.124h59.753c3.381 0 6.123-2.742 6.123-6.124z" fill="#65bc49"/></g></g></g><g><g><g><path d="m164 65h60v84h-60z" fill="#d3ba2a"/></g></g><g><g><path d="m32 65h60v84h-60z" fill="#ede49d"/></g></g><g><g><path d="m92 65h72v84h-72z" fill="#eee045"/></g></g></g><g><g><path d="m214 176h-172c-7.168 0-13-5.832-13-13v-106c0-7.168 5.832-13 13-13h172c7.168 0 13 5.832 13 13v106c0 7.168-5.832 13-13 13zm-172-126c-3.86 0-7 3.14-7 7v106c0 3.86 3.14 7 7 7h172c3.859 0 7-3.14 7-7v-106c0-3.86-3.141-7-7-7z" fill="#1c2d6b"/></g></g><g><g><path d="m224 152h-192c-1.657 0-3-1.343-3-3v-84c0-1.657 1.343-3 3-3h192c1.657 0 3 1.343 3 3v84c0 1.657-1.343 3-3 3zm-189-6h186v-78h-186z" fill="#1c2d6b"/></g></g><g><g><path d="m137 164h-18c-1.657 0-3-1.343-3-3s1.343-3 3-3h18c1.657 0 3 1.343 3 3s-1.343 3-3 3z" fill="#1c2d6b"/></g></g><g><g><path d="m152 200h-48c-1.213 0-2.307-.731-2.771-1.852s-.208-2.411.65-3.269l2.513-2.513c4.759-4.76 5.935-12.003 2.925-18.024-.465-.93-.416-2.035.131-2.919s1.512-1.423 2.552-1.423h36c1.04 0 2.005.539 2.552 1.423s.597 1.989.132 2.919c-3.011 6.021-1.835 13.264 2.925 18.023l2.513 2.514c.858.858 1.115 2.148.65 3.269-.464 1.121-1.559 1.852-2.772 1.852zm-41.139-6h34.278c-3.775-5.205-5.021-11.809-3.442-18h-27.395c1.58 6.191.334 12.795-3.441 18z" fill="#1c2d6b"/></g></g><g><g><g><path d="m115.753 205.76v-5.52c0-1.789 1.451-3.24 3.24-3.24h-26.993c-3.314 0-6 2.686-6 6s2.686 6 6 6h26.993c-1.789 0-3.24-1.451-3.24-3.24z" fill="#ef7f72"/></g></g><g><g><path d="m164 197h-26.993c1.789 0 3.24 1.451 3.24 3.24v5.52c0 1.789-1.451 3.24-3.24 3.24h26.993c3.314 0 6-2.686 6-6s-2.686-6-6-6z" fill="#e8383b"/></g></g><g><g><path d="m140.247 205.76v-5.52c0-1.789-1.451-3.24-3.24-3.24h-18.013c-1.789 0-3.24 1.451-3.24 3.24v5.52c0 1.789 1.451 3.24 3.24 3.24h18.013c1.789 0 3.24-1.451 3.24-3.24z" fill="#e95947"/></g></g></g><g><g><path d="m164 212h-72c-4.962 0-9-4.038-9-9s4.038-9 9-9h72c4.963 0 9 4.038 9 9s-4.037 9-9 9zm-72-12c-1.654 0-3 1.346-3 3s1.346 3 3 3h72c1.654 0 3-1.346 3-3s-1.346-3-3-3z" fill="#1c2d6b"/></g></g></g></svg>